<?xml version="1.0" standalone="no"?><!DOCTYPE svg PUBLIC "-//W3C//DTD SVG 1.1//EN" "http://www.w3.org/Graphics/SVG/1.1/DTD/svg11.dtd"><svg t="1495978719616" class="icon" style="" viewBox="0 0 1024 1024" version="1.1" xmlns="http://www.w3.org/2000/svg" p-id="4912" xmlns:xlink="http://www.w3.org/1999/xlink" width="64" height="64"><defs><style type="text/css"></style></defs><path d="M42.666667 524.8c0 204.8 130.133333 379.733333 313.6 441.6 25.6 6.4 19.2-12.8 19.2-21.333333v-81.066667c-142.933333 17.066667-147.2-76.8-157.866667-93.866667-19.2-32-64-42.666667-51.2-57.6 32-17.066667 64 4.266667 104.533333 61.866667 27.733333 42.666667 81.066667 34.133333 108.8 27.733333 4.266667-25.6 19.2-46.933333 36.266667-64-147.2-27.733333-209.066667-115.2-209.066667-221.866666 0-51.2 17.066667-98.133333 51.2-138.666667-21.333333-64 2.133333-119.466667 4.266667-125.866667 61.866667-4.266667 123.733333 44.8 128 46.933334 34.133333-10.666667 74.666667-14.933333 119.466667-14.933334s83.2 4.266667 119.466666 14.933334c12.8-10.666667 72.533333-51.2 128-46.933334 2.133333 6.4 25.6 61.866667 4.266667 123.733334 34.133333 40.533333 51.2 87.466667 51.2 138.666666 0 106.666667-61.866667 198.4-209.066667 221.866667 25.6 25.6 40.533333 59.733333 40.533334 96v119.466667c0 10.666667 0 19.2 14.933333 19.2 187.733333-64 322.133333-238.933333 322.133333-445.866667 0-260.266667-209.066667-469.333333-469.333333-469.333333s-469.333333 209.066667-469.333333 469.333333z" p-id="4913"></path></svg>